# xmcd
#
# Track frame offsets: 
#        150
#        19165
#        39187
#        56477
#        75289
#        92979
#        115052
#        136987
#        156972
#        176452
#        190096
#        205194
#        227079
#        240754
#        257980
#        279541
#        299832
#        319080
#
# Disc length: 4444 seconds
#
# Revision: 0
# Processed by: cddbd v1.5.2PL0 Copyright (c) Steve Scherf et al.
# Submitted via: ExactAudioCopy v0.99pb4
#
DISCID=f2115a12
DTITLE=Nocturnal Hustlers - Hollywood Vs. The Thief
DYEAR=2012
DGENRE=Underground Rap
TTITLE0=Event Horizon
TTITLE1=Outback
TTITLE2=Serotonin
TTITLE3=Nobody Likes Me
TTITLE4=John Kruk
TTITLE5=Player Shit
TTITLE6=The Hangover Feat Shiesty
TTITLE7=Montana
TTITLE8=Family Guy
TTITLE9=Chris Hansen
TTITLE10=Count Dracula
TTITLE11=Afghan Hash Feat Ad Kapone
TTITLE12=Allen Thicke
TTITLE13=Homeless Hennessy
TTITLE14=San Andreas Feat Mista Cane
TTITLE15=Paperback
TTITLE16=Four Eyes
TTITLE17=John Brooks
EXTD=
EXTT0=
EXTT1=
EXTT2=
EXTT3=
EXTT4=
EXTT5=
EXTT6=
EXTT7=
EXTT8=
EXTT9=
EXTT10=
EXTT11=
EXTT12=
EXTT13=
EXTT14=
EXTT15=
EXTT16=
EXTT17=
PLAYORDER=
